<svg width="158" height="123" viewBox="0 0 158 123" fill="none" xmlns="http://www.w3.org/2000/svg">
<rect width="158" height="123" fill="#F5F5F5"/>
<path d="M-2346 -5065C-2346 -5066.1 -2345.1 -5067 -2344 -5067H7191C7192.1 -5067 7193 -5066.1 7193 -5065V4904C7193 4905.1 7192.1 4906 7191 4906H-2344C-2345.1 4906 -2346 4905.1 -2346 4904V-5065Z" fill="#B0B0B0"/>
<path d="M-2344 -5066H7191V-5068H-2344V-5066ZM7192 -5065V4904H7194V-5065H7192ZM7191 4905H-2344V4907H7191V4905ZM-2345 4904V-5065H-2347V4904H-2345ZM-2344 4905C-2344.55 4905 -2345 4904.55 -2345 4904H-2347C-2347 4905.66 -2345.66 4907 -2344 4907V4905ZM7192 4904C7192 4904.55 7191.55 4905 7191 4905V4907C7192.66 4907 7194 4905.66 7194 4904H7192ZM7191 -5066C7191.55 -5066 7192 -5065.55 7192 -5065H7194C7194 -5066.66 7192.66 -5068 7191 -5068V-5066ZM-2344 -5068C-2345.66 -5068 -2347 -5066.66 -2347 -5065H-2345C-2345 -5065.55 -2344.55 -5066 -2344 -5066V-5068Z" fill="black" fill-opacity="0.1"/>
<path d="M-2270 -786C-2270 -787.105 -2269.1 -788 -2268 -788H404C405.104 -788 406 -787.105 406 -786V1075C406 1076.1 405.104 1077 404 1077H-2268C-2269.1 1077 -2270 1076.1 -2270 1075V-786Z" fill="white" fill-opacity="0.1"/>
<path d="M-2268 -787H404V-789H-2268V-787ZM405 -786V1075H407V-786H405ZM404 1076H-2268V1078H404V1076ZM-2269 1075V-786H-2271V1075H-2269ZM-2268 1076C-2268.55 1076 -2269 1075.55 -2269 1075H-2271C-2271 1076.66 -2269.66 1078 -2268 1078V1076ZM405 1075C405 1075.55 404.552 1076 404 1076V1078C405.657 1078 407 1076.66 407 1075H405ZM404 -787C404.552 -787 405 -786.552 405 -786H407C407 -787.657 405.657 -789 404 -789V-787ZM-2268 -789C-2269.66 -789 -2271 -787.657 -2271 -786H-2269C-2269 -786.552 -2268.55 -787 -2268 -787V-789Z" fill="black" fill-opacity="0.1"/>
<rect width="375" height="665" transform="translate(-197 -542)" fill="#FFD600"/>
<g clip-path="url(#clip0_341_955)">
<path d="M0 122.696V17.8892H157.767V122.696H131.472V96.4932H26.2957V122.696H0ZM131.475 70.2942V44.0917H26.2957V70.2942H131.475Z" fill="#0A0A0A"/>
<path d="M26.2957 0.302246H0V17.8997H26.2957V0.302246Z" fill="#0A0A0A"/>
<path d="M91.157 0.302246H64.8613V17.8997H91.157V0.302246Z" fill="#0A0A0A"/>
<path d="M157.77 0.302246H131.475V17.8997H157.77V0.302246Z" fill="#0A0A0A"/>
</g>
<defs>
<clipPath id="clip0_341_955">
<rect width="158" height="123" fill="white"/>
</clipPath>
</defs>
</svg>
