<svg width="198" height="21" viewBox="0 0 198 21" fill="none" xmlns="http://www.w3.org/2000/svg">
<rect width="198" height="21" fill="none"/>
<rect width="1440" height="5838" transform="translate(-40 -25)" fill="none"/>
<rect width="1440" height="612" transform="translate(-40 -25)" fill="none"/>
<g clip-path="url(#clip0_341_955)">
<path d="M168.983 20.4009V0.539795H197.078V5.50505H173.949V7.9877H184.524V12.953H173.949V15.4356H197.078V20.4009H168.983Z" fill="#0A0A0A"/>
<path d="M137.041 20.4009V0.539795H142.006V15.4356H164.576V20.4009H137.041Z" fill="#0A0A0A"/>
<path d="M115.194 20.4009V5.50505H102.781V0.539795H132.573V5.50505H120.16V20.4009H115.194Z" fill="#0A0A0A"/>
<path d="M68.5205 20.4009V15.4356H93.3466V12.953H68.5205V0.539795H98.312V5.50505H73.4856V7.9877H98.312V20.4009H68.5205Z" fill="#0A0A0A"/>
<path d="M59.0862 10.4703V5.50505H39.2252V10.4703H59.0862ZM34.2598 20.4009V0.539795H64.0516V20.4009H59.0862V15.4356H39.2252V20.4009H34.2598Z" fill="#0A0A0A"/>
<path d="M0 20.4009V0.539795H29.7916V5.50505H4.96529V15.4356H29.7916V20.4009H0Z" fill="#0A0A0A"/>
</g>
<defs>
<clipPath id="clip0_341_955">
<rect width="197.288" height="20" fill="none" transform="translate(0 0.5)"/>
</clipPath>
</defs>
</svg>
